<svg xmlns="http://www.w3.org/2000/svg"  width="30" height="30" viewBox="0 0 30 30" fill="none">
  <path fill-rule="evenodd" clip-rule="evenodd" d="M9.37 3.75H20.6313C23.7338 3.75 26.25 6.265 26.25 9.37V20.6313C26.25 23.7338 23.735 26.25 20.63 26.25H9.37C6.26625 26.25 3.75 23.735 3.75 20.63V9.37C3.75 6.26625 6.265 3.75 9.37 3.75V3.75Z" stroke="#D9D9D9" stroke-width="1.02273" stroke-linecap="round" stroke-linejoin="round"/>
  <path d="M21.1837 8.39111C20.9512 8.39236 20.7624 8.58111 20.7624 8.81361C20.7624 9.04611 20.9524 9.23486 21.1849 9.23486C21.4174 9.23486 21.6062 9.04611 21.6062 8.81361C21.6074 8.57986 21.4174 8.39111 21.1837 8.39111" stroke="#D9D9D9" stroke-width="1.02273" stroke-linecap="round" stroke-linejoin="round"/>
  <path d="M18.1839 11.8181C19.9413 13.5755 19.9413 16.4247 18.1839 18.1821C16.4266 19.9395 13.5773 19.9395 11.82 18.1821C10.0626 16.4247 10.0626 13.5755 11.82 11.8181C13.5773 10.0608 16.4266 10.0608 18.1839 11.8181" stroke="#D9D9D9" stroke-width="1.02273" stroke-linecap="round" stroke-linejoin="round"/>
</svg>