<svg xmlns="http://www.w3.org/2000/svg" width="81" height="53" viewBox="0 0 81 53" fill="none">
  <path fill-rule="evenodd" clip-rule="evenodd" d="M13.9243 52.496C7.11187 51.3022 14.5525 44.6276 12.9651 44.0362C11.0472 42.672 13.7919 43.6152 14.0786 43.4108C21.9383 33.0524 42.6299 17.8502 55.8799 20.5334C67.113 25.1953 41.4278 34.9058 39.7857 36.2248C34.4725 38.2714 28.7069 41.0803 23.5481 41.9096C19.326 44.6272 12.3369 42.2962 12.3369 50.5968C13.0313 53.6784 18.003 49.9145 20.1304 50.1306C18.3888 51.4157 15.9636 52.212 13.9243 52.496ZM56.7583 40.0354C55.0997 40.7003 49.839 45.1353 54.3286 44.7138C59.9257 44.1888 65.2969 41.7462 70.5891 39.5405C74.2153 37.8688 81.3258 34.8215 77.6991 33.8322C68.7912 33.0368 84.2582 31.7517 79.1979 36.4137C78.9331 36.6067 78.6907 36.8587 78.3821 37.0047C77.5092 37.4162 76.9153 37.6663 76.2948 37.9662C75.2229 38.4838 75.61 38.4734 71.9472 40.0622C71.7144 40.1639 70.0668 40.7705 69.6504 40.9664C69.6299 40.9763 69.7376 40.9268 69.7075 40.9386C68.4575 41.4165 68.5091 41.5187 67.8535 41.7316C67.3513 41.8945 66.7601 42.2402 66.1789 42.3829C66.0721 42.4092 61.2123 44.201 60.4658 44.4652C60.4133 44.4835 59.203 44.856 59.1241 44.8848C56.9003 45.673 52.1468 46.2946 50.9009 43.8728C49.5003 43.8728 47.7915 46.9313 45.9288 44.8848C45.9288 43.0087 39.9651 48.3299 41.9601 42.1559C41.1891 42.315 36.0412 48.0116 35.4563 44.5434C34.861 44.5434 29.5369 48.9552 29.5369 45.0778C31.3557 39.5066 35.9193 37.4482 40.7919 39.12C41.2548 40.5529 37.4628 42.122 37.639 43.8045C37.7162 43.7475 48.6954 33.7418 47.0752 37.7214C38.7411 47.5223 44.5286 44.1798 51.1758 38.9721C51.6821 38.6877 61.3615 29.5342 61.3615 32.9794C59.0903 34.3553 49.1474 41.4392 48.5516 43.7245C49.125 43.7245 66.7683 31.6199 65.506 35.9013C65.2115 36.9039 57.6536 39.6766 56.7583 40.0354ZM30.9006 45.6283C29.7542 44.1049 35.696 38.7833 38.2426 39.3399C39.5209 40.2845 32.1793 45.196 30.9006 45.6283ZM15.6883 43.4678C15.8646 41.9896 23.7024 34.3596 25.7527 33.4277C32.5651 28.4361 39.3004 24.1495 47.5797 22.0572C48.9241 21.2614 55.8694 20.7495 57.1482 22.0685C59.3085 27.1736 41.1197 34.337 38.3969 35.5425C31.132 38.4875 23.3495 41.967 15.6883 43.4678ZM1.20293 35.2129C-2.18137 33.8256 2.79076 31.5064 1.45676 33.7691C1.45676 34.5423 30.912 19.4988 27.1638 15.6332C22.115 13.1656 15.8755 17.0317 11.4554 14.5873C8.58922 10.6416 28.7074 2.72757 30.2395 2.11398C31.5954 1.65909 41.2187 -2.19526 41.2187 1.78435C40.6791 2.80762 35.4541 8.67461 35.7403 5.68437C36.7324 4.77459 39.8409 2.78502 40.0062 1.24987C34.2187 -0.239597 15.5669 9.31174 12.194 13.7575C12.194 14.9631 35.9389 10.7899 26.5576 20.466C22.2693 23.445 18.0473 26.7766 13.3847 29.0506C10.1433 31.1763 4.6096 34.5988 1.20293 35.2129ZM28.3983 24.7522C23.2285 21.9324 33.3152 15.1783 33.8329 12.472C26.7004 14.3024 35.8284 10.3685 37.4706 8.67414C42.1222 4.42141 46.6424 0.794508 44.8669 3.84173C42.7509 5.25161 40.8992 7.139 39.036 8.87898C38.8155 9.58393 60.9183 0.0212839 60.9183 2.98892C55.858 3.84173 50.9744 5.61562 46.3342 7.57128C43.479 8.15097 36.5009 10.7781 34.8254 13.3022C33.26 15.0643 23.4161 27.9478 31.6397 22.1825C32.4884 18.4642 40.3043 9.45866 43.6219 12.0628C43.6219 14.7464 36.0384 20.4769 34.6273 21.7733C34.6273 23.6607 48.0864 11.1191 48.7598 10.6873C52.2203 10.6873 46.0142 15.2013 45.4526 15.6106C39.9076 21.8076 45.9923 19.2266 48.6388 15.8041C49.2665 13.0295 53.9958 7.65134 56.6967 7.65134C60.2901 10.2437 43.9315 18.783 52.728 16.9752C54.6907 16.3042 69.4952 8.94773 60.4444 11.1082C60.4444 8.95951 67.1139 9.40263 64.2587 12.1197C60.7644 14.6782 54.9102 18.9874 50.5234 18.192C46.5438 16.1111 44.3716 23.1493 41.6602 19.5906C41.3187 18.2829 35.8394 23.2632 33.3266 23.2632C31.9922 22.7396 30.2614 24.6382 28.3983 24.7522ZM33.6124 20.8065C33.7777 18.8621 40.3038 12.7903 42.2108 12.6198C40.8768 15.5762 36.1042 18.9869 33.6124 20.8065ZM51.8455 13.1543C52.0327 12.5742 53.9848 10.1297 54.6897 10.2432C54.2259 11.21 52.6942 12.4263 51.8455 13.1543Z" fill="white"/>
</svg>