<svg xmlns="http://www.w3.org/2000/svg" width="31" height="30" viewBox="0 0 31 30" fill="none">
  <path d="M24.7902 11.6875C24.7902 11.4051 24.5612 11.1761 24.2788 11.1761C23.9964 11.1761 23.7675 11.4051 23.7675 11.6875H24.7902ZM4.44176 20.3859C4.27518 20.1578 3.95527 20.108 3.7272 20.2746C3.49914 20.4411 3.44929 20.761 3.61587 20.9891L4.44176 20.3859ZM3.94192 20.1836C3.66361 20.2316 3.4769 20.4961 3.52488 20.7744C3.57287 21.0527 3.83738 21.2394 4.11569 21.1914L3.94192 20.1836ZM7.40381 19.5625L7.56628 20.0474C7.73372 19.9913 7.86036 19.8527 7.90126 19.681C7.94217 19.5092 7.89155 19.3284 7.76737 19.2029L7.40381 19.5625ZM6.27881 6.0625L6.7292 5.82035C6.6456 5.66485 6.48771 5.56348 6.31153 5.55218C6.13534 5.54089 5.9658 5.62127 5.86302 5.76482L6.27881 6.0625ZM13.0288 11.6875L12.908 12.1844C13.0576 12.2207 13.2156 12.1878 13.3381 12.0947C13.4607 12.0016 13.5348 11.8582 13.5399 11.7044L13.0288 11.6875ZM23.1538 8.3125L22.7269 8.59394C22.8215 8.73748 22.9819 8.82386 23.1538 8.82386V8.3125ZM26.5288 8.3125L26.9543 8.59615C27.0589 8.43924 27.0687 8.23748 26.9797 8.07121C26.8907 7.90494 26.7174 7.80114 26.5288 7.80114V8.3125ZM23.8533 11.4038C23.6967 11.6388 23.7602 11.9563 23.9952 12.113C24.2301 12.2696 24.5476 12.2061 24.7043 11.9712L23.8533 11.4038ZM23.7675 11.6875C23.7675 15.5309 22.6698 18.7757 20.661 21.0523C18.6592 23.321 15.7113 24.6761 11.9038 24.6761V25.6989C15.9713 25.6989 19.2109 24.2415 21.4279 21.729C23.6378 19.2243 24.7902 15.7191 24.7902 11.6875H23.7675ZM11.9038 24.6761C9.75239 24.6761 8.28116 24.1177 7.16341 23.3268C6.03003 22.5248 5.22982 21.4648 4.44176 20.3859L3.61587 20.9891C4.39906 22.0614 5.28635 23.2514 6.57266 24.1616C7.87459 25.0829 9.55524 25.6989 11.9038 25.6989V24.6761ZM4.11569 21.1914C4.14173 21.1869 4.16278 21.1811 4.16296 21.181C4.16899 21.1794 4.17406 21.1779 4.17697 21.1771C4.18309 21.1753 4.18912 21.1734 4.19383 21.1719C4.20371 21.1689 4.21605 21.1649 4.22979 21.1605C4.25764 21.1515 4.29647 21.1388 4.3441 21.1231C4.43962 21.0917 4.5736 21.0473 4.73278 20.9943C5.05127 20.8884 5.47232 20.7479 5.89199 20.6077C6.31171 20.4674 6.73028 20.3273 7.0439 20.2223C7.20072 20.1698 7.33131 20.1261 7.42269 20.0955C7.46838 20.0802 7.50428 20.0681 7.52875 20.0599C7.54098 20.0558 7.55036 20.0527 7.55669 20.0506C7.55985 20.0495 7.56225 20.0487 7.56385 20.0482C7.56466 20.0479 7.56526 20.0477 7.56567 20.0476C7.56587 20.0475 7.56602 20.0475 7.56612 20.0474C7.56618 20.0474 7.56621 20.0474 7.56624 20.0474C7.56627 20.0474 7.56628 20.0474 7.40381 19.5625C7.24134 19.0776 7.24133 19.0776 7.2413 19.0777C7.24128 19.0777 7.24124 19.0777 7.24119 19.0777C7.24109 19.0777 7.24094 19.0778 7.24073 19.0778C7.24033 19.078 7.23973 19.0782 7.23893 19.0784C7.23732 19.079 7.23493 19.0798 7.23177 19.0808C7.22546 19.083 7.21609 19.0861 7.20386 19.0902C7.17941 19.0984 7.14353 19.1104 7.09786 19.1257C7.00652 19.1563 6.87598 19.2 6.71922 19.2525C6.40569 19.3575 5.98731 19.4975 5.56782 19.6377C5.14827 19.7779 4.72783 19.9182 4.41011 20.0238C4.25118 20.0767 4.11838 20.1207 4.02437 20.1516C3.97724 20.1672 3.94062 20.1791 3.91558 20.1872C3.90287 20.1913 3.89441 20.194 3.88953 20.1955C3.88686 20.1964 3.88702 20.1963 3.88883 20.1958C3.88959 20.1955 3.89289 20.1946 3.89756 20.1933C3.8999 20.1927 3.90422 20.1915 3.90975 20.1902C3.9137 20.1893 3.92594 20.1863 3.94192 20.1836L4.11569 21.1914ZM7.76737 19.2029C4.18863 15.5849 3.91915 10.2368 6.69459 6.36018L5.86302 5.76482C2.80347 10.0382 3.10399 15.9426 7.04025 19.9221L7.76737 19.2029ZM5.82841 6.30465C7.26199 8.97107 9.94985 11.4654 12.908 12.1844L13.1496 11.1906C10.5428 10.5571 8.06313 8.30143 6.7292 5.82035L5.82841 6.30465ZM13.5399 11.7044C13.5899 10.1912 14.1259 8.91171 15.0044 8.01391C15.8803 7.1189 17.1248 6.57386 18.6538 6.57386V5.55114C16.869 5.55114 15.3548 6.19361 14.2735 7.29859C13.1949 8.40079 12.5752 9.93377 12.5177 11.6706L13.5399 11.7044ZM18.6538 6.57386C19.7159 6.57386 20.5256 6.77585 21.1655 7.11739C21.8044 7.45834 22.3058 7.95524 22.7269 8.59394L23.5808 8.03107C23.0855 7.27976 22.4651 6.65166 21.6471 6.21511C20.8302 5.77915 19.848 5.55114 18.6538 5.55114V6.57386ZM23.1538 8.82386H26.5288V7.80114H23.1538V8.82386ZM26.1033 8.02885L23.8533 11.4038L24.7043 11.9712L26.9543 8.59615L26.1033 8.02885Z" fill="#D9D9D9"/>
</svg>